<svg xmlns="http://www.w3.org/2000/svg" viewBox="0 0 40 40" width="40" height="40">
  <!-- Custom Species Tutorial Logo -->
  <defs>
    <linearGradient id="mainGradient" x1="0%" y1="0%" x2="100%" y2="100%">
      <stop offset="0%" style="stop-color:#C08552;stop-opacity:1" />
      <stop offset="100%" style="stop-color:#895737;stop-opacity:1" />
    </linearGradient>
    <linearGradient id="accentGradient" x1="0%" y1="0%" x2="100%" y2="100%">
      <stop offset="0%" style="stop-color:#F3E9DC;stop-opacity:1" />
      <stop offset="100%" style="stop-color:#5E3023;stop-opacity:1" />
    </linearGradient>
  </defs>
  
  <!-- Background circle -->
  <circle cx="20" cy="20" r="18" fill="#F3E9DC" stroke="#C08552" stroke-width="2"/>
  
  <!-- Main DNA helix structure -->
  <g transform="translate(20,20)">
    <!-- Left strand -->
    <path d="M-8,-12 Q-8,-8 -8,-4 Q-8,0 -8,4 Q-8,8 -8,12" 
          stroke="url(#mainGradient)" stroke-width="3" fill="none"/>
    
    <!-- Right strand -->
    <path d="M8,-12 Q8,-8 8,-4 Q8,0 8,4 Q8,8 8,12" 
          stroke="url(#mainGradient)" stroke-width="3" fill="none"/>
    
    <!-- Connecting bars -->
    <line x1="-8" y1="-10" x2="8" y2="-10" stroke="#5E3023" stroke-width="2"/>
    <line x1="-8" y1="-6" x2="8" y2="-6" stroke="#5E3023" stroke-width="2"/>
    <line x1="-8" y1="-2" x2="8" y2="-2" stroke="#5E3023" stroke-width="2"/>
    <line x1="-8" y1="2" x2="8" y2="2" stroke="#5E3023" stroke-width="2"/>
    <line x1="-8" y1="6" x2="8" y2="6" stroke="#5E3023" stroke-width="2"/>
    <line x1="-8" y1="10" x2="8" y2="10" stroke="#5E3023" stroke-width="2"/>
  </g>
  
  <!-- Decorative elements -->
  <circle cx="6" cy="6" r="1.5" fill="#C08552"/>
  <circle cx="34" cy="6" r="1.5" fill="#C08552"/>
  <circle cx="6" cy="34" r="1.5" fill="#895737"/>
  <circle cx="34" cy="34" r="1.5" fill="#895737"/>
  
  <!-- Small accent dots -->
  <circle cx="20" cy="4" r="1" fill="#5E3023"/>
  <circle cx="20" cy="36" r="1" fill="#5E3023"/>
</svg>