<svg xmlns="http://www.w3.org/2000/svg" viewBox="0 0 40 40" width="40" height="40">
  <!-- Plant/Leaf logo for species tutorial -->
  <defs>
    <linearGradient id="leafGradient" x1="0%" y1="0%" x2="100%" y2="100%">
      <stop offset="0%" style="stop-color:#C08552;stop-opacity:1" />
      <stop offset="100%" style="stop-color:#895737;stop-opacity:1" />
    </linearGradient>
    <linearGradient id="stemGradient" x1="0%" y1="0%" x2="100%" y2="100%">
      <stop offset="0%" style="stop-color:#5E3023;stop-opacity:1" />
      <stop offset="100%" style="stop-color:#5E3023;stop-opacity:1" />
    </linearGradient>
  </defs>
  
  <!-- Main leaf -->
  <path d="M20 2C18 2 16 3 14 5C12 7 10 9 10 12C10 15 12 18 14 20C16 22 18 24 20 26C22 24 24 22 26 20C28 18 30 15 30 12C30 9 28 7 26 5C24 3 22 2 20 2Z" fill="url(#leafGradient)"/>
  
  <!-- Leaf details -->
  <path d="M20 8C20 8 22 10 22 12C22 14 20 16 20 16C20 16 18 14 18 12C18 10 20 8 20 8Z" fill="#F3E9DC" opacity="0.3"/>
  
  <!-- Stem -->
  <path d="M20 26L20 34" stroke="url(#stemGradient)" stroke-width="3" stroke-linecap="round"/>
  
  <!-- Root circle -->
  <circle cx="20" cy="36" r="3" fill="#5E3023"/>
  
  <!-- Small decorative leaves -->
  <circle cx="16" cy="8" r="2" fill="#F3E9DC" opacity="0.4"/>
  <circle cx="24" cy="8" r="2" fill="#F3E9DC" opacity="0.4"/>
</svg>