<svg xmlns="http://www.w3.org/2000/svg" viewBox="0 0 32 32" width="32" height="32">
  <!-- DNA/research icon for species tutorial -->
  <path d="M8 4C8 4 10 6 10 8C10 10 8 12 8 14C8 16 10 18 10 20C10 22 8 24 8 24" stroke="#C08552" stroke-width="3" fill="none" stroke-linecap="round"/>
  <path d="M24 4C24 4 22 6 22 8C22 10 24 12 24 14C24 16 22 18 22 20C22 22 24 24 24 24" stroke="#C08552" stroke-width="3" fill="none" stroke-linecap="round"/>
  <path d="M8 4L24 8M8 8L24 4M8 12L24 16M8 16L24 12M8 20L24 24M8 24L24 20" stroke="#5E3023" stroke-width="2" stroke-linecap="round"/>
  <circle cx="8" cy="4" r="2" fill="#895737"/>
  <circle cx="24" cy="4" r="2" fill="#895737"/>
  <circle cx="8" cy="24" r="2" fill="#895737"/>
  <circle cx="24" cy="24" r="2" fill="#895737"/>
</svg>
