<svg xmlns="http://www.w3.org/2000/svg" viewBox="0 0 32 32" width="32" height="32">
  <!-- Plant/Leaf icon for species tutorial -->
  <path d="M16 2C14 2 12 3 10 5C8 7 6 9 6 12C6 15 8 18 10 20C12 22 14 24 16 26C18 24 20 22 22 20C24 18 26 15 26 12C26 9 24 7 22 5C20 3 18 2 16 2Z" fill="#4CAF50"/>
  <path d="M16 8C16 8 18 10 18 12C18 14 16 16 16 16C16 16 14 14 14 12C14 10 16 8 16 8Z" fill="#2E7D32"/>
  <path d="M16 16L16 26" stroke="#2E7D32" stroke-width="2" stroke-linecap="round"/>
  <circle cx="16" cy="28" r="2" fill="#2E7D32"/>
</svg>
