<svg xmlns="http://www.w3.org/2000/svg" viewBox="0 0 32 32" width="32" height="32">
  <!-- Modern Species Tutorial Logo -->
  <!-- Main circle background -->
  <circle cx="16" cy="16" r="15" fill="#F3E9DC" stroke="#C08552" stroke-width="2"/>
  
  <!-- DNA/Genetic helix symbol -->
  <path d="M8 8 Q12 12, 16 8 Q20 4, 24 8 Q20 12, 16 8 Q12 4, 8 8" 
        stroke="#5E3023" stroke-width="2" fill="none" stroke-linecap="round"/>
  <path d="M8 16 Q12 20, 16 16 Q20 12, 24 16 Q20 20, 16 16 Q12 20, 8 16" 
        stroke="#C08552" stroke-width="2" fill="none" stroke-linecap="round"/>
  <path d="M8 24 Q12 28, 16 24 Q20 20, 24 24 Q20 28, 16 24 Q12 28, 8 24" 
        stroke="#895737" stroke-width="2" fill="none" stroke-linecap="round"/>
  
  <!-- Central dot -->
  <circle cx="16" cy="16" r="2" fill="#5E3023"/>
</svg>
