<svg xmlns="http://www.w3.org/2000/svg" viewBox="0 0 192 192" width="192" height="192">
  <!-- Custom Species Tutorial Logo -->
  <defs>
    <linearGradient id="mainGradient" x1="0%" y1="0%" x2="100%" y2="100%">
      <stop offset="0%" style="stop-color:#C08552;stop-opacity:1" />
      <stop offset="100%" style="stop-color:#895737;stop-opacity:1" />
    </linearGradient>
    <linearGradient id="accentGradient" x1="0%" y1="0%" x2="100%" y2="100%">
      <stop offset="0%" style="stop-color:#F3E9DC;stop-opacity:1" />
      <stop offset="100%" style="stop-color:#5E3023;stop-opacity:1" />
    </linearGradient>
  </defs>
  
  <!-- Background circle -->
  <circle cx="96" cy="96" r="85" fill="#F3E9DC" stroke="#C08552" stroke-width="8"/>
  
  <!-- Main DNA helix structure -->
  <g transform="translate(96,96)">
    <!-- Left strand -->
    <path d="M-35,-50 Q-35,-35 -35,-20 Q-35,-5 -35,10 Q-35,25 -35,40 Q-35,55 -35,70" 
          stroke="url(#mainGradient)" stroke-width="12" fill="none"/>
    
    <!-- Right strand -->
    <path d="M35,-50 Q35,-35 35,-20 Q35,-5 35,10 Q35,25 35,40 Q35,55 35,70" 
          stroke="url(#mainGradient)" stroke-width="12" fill="none"/>
    
    <!-- Connecting bars -->
    <line x1="-35" y1="-45" x2="35" y2="-45" stroke="#5E3023" stroke-width="8"/>
    <line x1="-35" y1="-30" x2="35" y2="-30" stroke="#5E3023" stroke-width="8"/>
    <line x1="-35" y1="-15" x2="35" y2="-15" stroke="#5E3023" stroke-width="8"/>
    <line x1="-35" y1="0" x2="35" y2="0" stroke="#5E3023" stroke-width="8"/>
    <line x1="-35" y1="15" x2="35" y2="15" stroke="#5E3023" stroke-width="8"/>
    <line x1="-35" y1="30" x2="35" y2="30" stroke="#5E3023" stroke-width="8"/>
    <line x1="-35" y1="45" x2="35" y2="45" stroke="#5E3023" stroke-width="8"/>
    <line x1="-35" y1="60" x2="35" y2="60" stroke="#5E3023" stroke-width="8"/>
  </g>
  
  <!-- Decorative elements -->
  <circle cx="30" cy="30" r="6" fill="#C08552"/>
  <circle cx="162" cy="30" r="6" fill="#C08552"/>
  <circle cx="30" cy="162" r="6" fill="#895737"/>
  <circle cx="162" cy="162" r="6" fill="#895737"/>
  
  <!-- Small accent dots -->
  <circle cx="96" cy="20" r="4" fill="#5E3023"/>
  <circle cx="96" cy="172" r="4" fill="#5E3023"/>
</svg>