<svg xmlns="http://www.w3.org/2000/svg" viewBox="0 0 512 512" width="512" height="512">
  <!-- Custom Species Tutorial Logo -->
  <defs>
    <linearGradient id="mainGradient" x1="0%" y1="0%" x2="100%" y2="100%">
      <stop offset="0%" style="stop-color:#C08552;stop-opacity:1" />
      <stop offset="100%" style="stop-color:#895737;stop-opacity:1" />
    </linearGradient>
    <linearGradient id="accentGradient" x1="0%" y1="0%" x2="100%" y2="100%">
      <stop offset="0%" style="stop-color:#F3E9DC;stop-opacity:1" />
      <stop offset="100%" style="stop-color:#5E3023;stop-opacity:1" />
    </linearGradient>
  </defs>
  
  <!-- Background circle -->
  <circle cx="256" cy="256" r="230" fill="#F3E9DC" stroke="#C08552" stroke-width="20"/>
  
  <!-- Main DNA helix structure -->
  <g transform="translate(256,256)">
    <!-- Left strand -->
    <path d="M-90,-130 Q-90,-90 -90,-50 Q-90,-10 -90,30 Q-90,70 -90,110 Q-90,150 -90,190" 
          stroke="url(#mainGradient)" stroke-width="30" fill="none"/>
    
    <!-- Right strand -->
    <path d="M90,-130 Q90,-90 90,-50 Q90,-10 90,30 Q90,70 90,110 Q90,150 90,190" 
          stroke="url(#mainGradient)" stroke-width="30" fill="none"/>
    
    <!-- Connecting bars -->
    <line x1="-90" y1="-120" x2="90" y2="-120" stroke="#5E3023" stroke-width="20"/>
    <line x1="-90" y1="-80" x2="90" y2="-80" stroke="#5E3023" stroke-width="20"/>
    <line x1="-90" y1="-40" x2="90" y2="-40" stroke="#5E3023" stroke-width="20"/>
    <line x1="-90" y1="0" x2="90" y2="0" stroke="#5E3023" stroke-width="20"/>
    <line x1="-90" y1="40" x2="90" y2="40" stroke="#5E3023" stroke-width="20"/>
    <line x1="-90" y1="80" x2="90" y2="80" stroke="#5E3023" stroke-width="20"/>
    <line x1="-90" y1="120" x2="90" y2="120" stroke="#5E3023" stroke-width="20"/>
    <line x1="-90" y1="160" x2="90" y2="160" stroke="#5E3023" stroke-width="20"/>
  </g>
  
  <!-- Decorative elements -->
  <circle cx="80" cy="80" r="16" fill="#C08552"/>
  <circle cx="432" cy="80" r="16" fill="#C08552"/>
  <circle cx="80" cy="432" r="16" fill="#895737"/>
  <circle cx="432" cy="432" r="16" fill="#895737"/>
  
  <!-- Small accent dots -->
  <circle cx="256" cy="50" r="10" fill="#5E3023"/>
  <circle cx="256" cy="462" r="10" fill="#5E3023"/>
</svg>