<svg xmlns="http://www.w3.org/2000/svg" viewBox="0 0 192 192" width="192" height="192">
  <!-- Plant/Leaf logo for species tutorial -->
  <defs>
    <linearGradient id="leafGradient" x1="0%" y1="0%" x2="100%" y2="100%">
      <stop offset="0%" style="stop-color:#C08552;stop-opacity:1" />
      <stop offset="100%" style="stop-color:#895737;stop-opacity:1" />
    </linearGradient>
    <linearGradient id="stemGradient" x1="0%" y1="0%" x2="100%" y2="100%">
      <stop offset="0%" style="stop-color:#5E3023;stop-opacity:1" />
      <stop offset="100%" style="stop-color:#5E3023;stop-opacity:1" />
    </linearGradient>
  </defs>
  
  <!-- Background circle -->
  <circle cx="96" cy="96" r="90" fill="#F3E9DC"/>
  
  <!-- Main leaf -->
  <path d="M96 20C90 20 84 25 78 35C72 45 66 55 66 70C66 85 72 100 78 110C84 120 90 125 96 130C102 125 108 120 114 110C120 100 126 85 126 70C126 55 120 45 114 35C108 25 102 20 96 20Z" fill="url(#leafGradient)"/>
  
  <!-- Leaf details -->
  <path d="M96 35C96 35 102 45 102 55C102 65 96 75 96 75C96 75 90 65 90 55C90 45 96 35 96 35Z" fill="#F3E9DC" opacity="0.3"/>
  
  <!-- Stem -->
  <path d="M96 130L96 160" stroke="url(#stemGradient)" stroke-width="8" stroke-linecap="round"/>
  
  <!-- Root circle -->
  <circle cx="96" cy="170" r="8" fill="#5E3023"/>
  
  <!-- Small decorative leaves -->
  <circle cx="80" cy="35" r="6" fill="#F3E9DC" opacity="0.4"/>
  <circle cx="112" cy="35" r="6" fill="#F3E9DC" opacity="0.4"/>
</svg>
